<svg xmlns="http://www.w3.org/2000/svg" viewBox="0 0 588.69 323.68" role="img" aria-label="Vietnamese-German University" xmlns:c2pa="http://c2pa.org/manifest"><metadata><c2pa:manifest>AAAWgmp1bWIAAAAeanVtZGMycGEAEQAQgAAAqgA4m3EDYzJwYQAAABZcanVtYgAAAEdqdW1kYzJtYQARABCAAACqADibcQN1cm46YzJwYTowMzc0MGFhYS1mYTY2LTQ5ZWEtOWM0NC1jMzRmMWFhNjc5N2QAAAADl2p1bWIAAAApanVtZGMyYXMAEQAQgAAAqgA4m3EDYzJwYS5hc3NlcnRpb25zAAAAALxqdW1iAAAARGp1bWRjYm9yABEAEIAAAKoAOJtxE2MycGEuaW5ncmVkaWVudC52MwAAAAAYYzJzaH3PU+uigFtOQtQ3ju3mnswAAABwY2JvcqNpZGM6Zm9ybWF0bWltYWdlL3N2Zyt4bWxqaW5zdGFuY2VJRHgseG1wOmlpZDoxMDdmNDFmMS1mOTk0LTRjMmEtOTYwMy0xMGY0NWQwN2JmOWJscmVsYXRpb25zaGlwaHBhcmVudE9mAAAB4mp1bWIAAABBanVtZGNib3IAEQAQgAAAqgA4m3ETYzJwYS5hY3Rpb25zLnYyAAAAABhjMnNoATSPUHAWb78F+mtRpe8GTwAAAZljYm9yomdhY3Rpb25zgqJmYWN0aW9ua2MycGEub3BlbmVkanBhcmFtZXRlcnOha2luZ3JlZGllbnRzgaJjdXJseC1zZWxmI2p1bWJmPWMycGEuYXNzZXJ0aW9ucy9jMnBhLmluZ3JlZGllbnQudjNkaGFzaFggdF6E3cIfTPxGAeRJ3VRFpfCEXBwl6Quxa9t6goFUn26kZmFjdGlvbngdY29tLmFudGhyb3BpYy5jbGF1ZGUucHJvdmlkZWRqcGFyYW1ldGVyc6F4H2NvbS5hbnRocm9waWMub3JpZ2luLWNvbmZpZGVuY2VndW5rbm93bmtkZXNjcmlwdGlvbnhmQ2xhdWRlIHByb3ZpZGVkIHRoaXMgZmlsZSBhdCB0aGUgcmVxdWVzdCBvZiBhIHVzZXIgYW5kIG1heSBoYXZlIGNyZWF0ZWQgb3IgbW9kaWZpZWQgdGhlIGZpbGUgY29udGVudHMubXNvZnR3YXJlQWdlbnShZG5hbWVmQ2xhdWRlcmFsbEFjdGlvbnNJbmNsdWRlZPUAAADIanVtYgAAAEBqdW1kY2JvcgARABCAAACqADibcRNjMnBhLmhhc2guZGF0YQAAAAAYYzJzaC+j7q0bpW2+JINs4aQh5/UAAACAY2JvcqVjYWxnZnNoYTI1NmNwYWRNAAAAAAAAAAAAAAAAAGRoYXNoWCAZ3kDnbSI/jr800Dqib23p6asEtJnEf9M7VHb7bigTvWRuYW1lbmp1bWJmIG1hbmlmZXN0amV4Y2x1c2lvbnOBomVzdGFydBi4Zmxlbmd0aBkeBAAAAj5qdW1iAAAAJ2p1bWRjMmNsABEAEIAAAKoAOJtxA2MycGEuY2xhaW0udjIAAAACD2Nib3KlY2FsZ2ZzaGEyNTZpc2lnbmF0dXJleE1zZWxmI2p1bWJmPS9jMnBhL3VybjpjMnBhOjAzNzQwYWFhLWZhNjYtNDllYS05YzQ0LWMzNGYxYWE2Nzk3ZC9jMnBhLnNpZ25hdHVyZWppbnN0YW5jZUlEeCx4bXA6aWlkOmMyNzhlMTk2LWJkZmQtNGFlYi1iMDJiLWExYzc2Y2RkNTU2YnJjcmVhdGVkX2Fzc2VydGlvbnODomN1cmx4LXNlbGYjanVtYmY9YzJwYS5hc3NlcnRpb25zL2MycGEuaW5ncmVkaWVudC52M2RoYXNoWCB0XoTdwh9M/EYB5EndVEWl8IRcHCXpC7Fr23qCgVSfbqJjdXJseCpzZWxmI2p1bWJmPWMycGEuYXNzZXJ0aW9ucy9jMnBhLmFjdGlvbnMudjJkaGFzaFgghMfuRPjOeZ75KpLFVT46to7ylbQ8ADXwfDJ05+kfTpWiY3VybHgpc2VsZiNqdW1iZj1jMnBhLmFzc2VydGlvbnMvYzJwYS5oYXNoLmRhdGFkaGFzaFggwU+mHEod0cwzGDIRqscnyidpOvbsJLPnQRyGi0NAfc90Y2xhaW1fZ2VuZXJhdG9yX2luZm+jZG5hbWVvQW50aHJvcGljIEZpbGVzZ3ZlcnNpb25lMS4wLjBrc3BlY1ZlcnNpb25lMi40LjAAABA4anVtYgAAAChqdW1kYzJjcwARABCAAACqADibcQNjMnBhLnNpZ25hdHVyZQAAABAIY2JvctKEWQISogEmGCFZAgowggIGMIIBjaADAgECAhRA5aAK7sI50L64g/oGQgU9Z1UTADAKBggqhkjOPQQDAzBJMRcwFQYDVQQKEw5BbnRocm9waWMsIFBCQzEuMCwGA1UEAxMlQW50aHJvcGljIENvbnRlbnQgQ3JlZGVudGlhbHMgUm9vdCBDQTAeFw0yNjA4MDcxODQzNTZaFw0yODA4MDYxOTQzNTZaMEQxFzAVBgNVBAoTDkFudGhyb3BpYywgUEJDMSkwJwYDVQQDEyBBbnRocm9waWMgQ2xhdWRlIENvbnRlbnQgU2lnbmluZzBZMBMGByqGSM49AgEGCCqGSM49AwEHA0IABJh6CmvLUBgFFNU0vUKlOVtE6djd17L5SuwX0LemFisBM3dkd/3cyjxFA3Qo5S46fX0/ihY0VZ7mfb9KF703t5OjWDBWMA4GA1UdDwEB/wQEAwIHgDAVBgNVHSUEDjAMBgorBgEEAYPoXgIBMAwGA1UdEwEB/wQCMAAwHwYDVR0jBBgwFoAUzlHiBIFOZFsj+OPEz5o+nMHXXMIwCgYIKoZIzj0EAwMDZwAwZAIwMXMdFJ4BetLLVY7ORuE9noqbbAZOZn/aArXyTwFAZfKrPzxF2vPoJNf1+UCdg1XGAjBwX1zd9WGqYkqmL5SFqw1QySjr1zJfpJM9+1rdDwSPLMOPOjKuiXjoU/pUUeG9RwmhY3BhZFkNngAAAAAAAAAAAAAAAAAAAAAAAAAAAAAAAAAAAAAAAAAAAAAAAAAAAAAAAAAAAAAAAAAAAAAAAAAAAAAAAAAAAAAAAAAAAAAAAAAAAAAAAAAAAAAAAAAAAAAAAAAAAAAAAAAAAAAAAAAAAAAAAAAAAAAAAAAAAAAAAAAAAAAAAAAAAAAAAAAAAAAAAAAAAAAAAAAAAAAAAAAAAAAAAAAAAAAAAAAAAAAAAAAAAAAAAAAAAAAAAAAAAAAAAAAAAAAAAAAAAAAAAAAAAAAAAAAAAAAAAAAAAAAAAAAAAAAAAAAAAAAAAAAAAAAAAAAAAAAAAAAAAAAAAAAAAAAAAAAAAAAAAAAAAAAAAAAAAAAAAAAAAAAAAAAAAAAAAAAAAAAAAAAAAAAAAAAAAAAAAAAAAAAAAAAAAAAAAAAAAAAAAAAAAAAAAAAAAAAAAAAAAAAAAAAAAAAAAAAAAAAAAAAAAAAAAAAAAAAAAAAAAAAAAAAAAAAAAAAAAAAAAAAAAAAAAAAAAAAAAAAAAAAAAAAAAAAAAAAAAAAAAAAAAAAAAAAAAAAAAAAAAAAAAAAAAAAAAAAAAAAAAAAAAAAAAAAAAAAAAAAAAAAAAAAAAAAAAAAAAAAAAAAAAAAAAAAAAAAAAAAAAAAAAAAAAAAAAAAAAAAAAAAAAAAAAAAAAAAAAAAAAAAAAAAAAAAAAAAAAAAAAAAAAAAAAAAAAAAAAAAAAAAAAAAAAAAAAAAAAAAAAAAAAAAAAAAAAAAAAAAAAAAAAAAAAAAAAAAAAAAAAAAAAAAAAAAAAAAAAAAAAAAAAAAAAAAAAAAAAAAAAAAAAAAAAAAAAAAAAAAAAAAAAAAAAAAAAAAAAAAAAAAAAAAAAAAAAAAAAAAAAAAAAAAAAAAAAAAAAAAAAAAAAAAAAAAAAAAAAAAAAAAAAAAAAAAAAAAAAAAAAAAAAAAAAAAAAAAAAAAAAAAAAAAAAAAAAAAAAAAAAAAAAAAAAAAAAAAAAAAAAAAAAAAAAAAAAAAAAAAAAAAAAAAAAAAAAAAAAAAAAAAAAAAAAAAAAAAAAAAAAAAAAAAAAAAAAAAAAAAAAAAAAAAAAAAAAAAAAAAAAAAAAAAAAAAAAAAAAAAAAAAAAAAAAAAAAAAAAAAAAAAAAAAAAAAAAAAAAAAAAAAAAAAAAAAAAAAAAAAAAAAAAAAAAAAAAAAAAAAAAAAAAAAAAAAAAAAAAAAAAAAAAAAAAAAAAAAAAAAAAAAAAAAAAAAAAAAAAAAAAAAAAAAAAAAAAAAAAAAAAAAAAAAAAAAAAAAAAAAAAAAAAAAAAAAAAAAAAAAAAAAAAAAAAAAAAAAAAAAAAAAAAAAAAAAAAAAAAAAAAAAAAAAAAAAAAAAAAAAAAAAAAAAAAAAAAAAAAAAAAAAAAAAAAAAAAAAAAAAAAAAAAAAAAAAAAAAAAAAAAAAAAAAAAAAAAAAAAAAAAAAAAAAAAAAAAAAAAAAAAAAAAAAAAAAAAAAAAAAAAAAAAAAAAAAAAAAAAAAAAAAAAAAAAAAAAAAAAAAAAAAAAAAAAAAAAAAAAAAAAAAAAAAAAAAAAAAAAAAAAAAAAAAAAAAAAAAAAAAAAAAAAAAAAAAAAAAAAAAAAAAAAAAAAAAAAAAAAAAAAAAAAAAAAAAAAAAAAAAAAAAAAAAAAAAAAAAAAAAAAAAAAAAAAAAAAAAAAAAAAAAAAAAAAAAAAAAAAAAAAAAAAAAAAAAAAAAAAAAAAAAAAAAAAAAAAAAAAAAAAAAAAAAAAAAAAAAAAAAAAAAAAAAAAAAAAAAAAAAAAAAAAAAAAAAAAAAAAAAAAAAAAAAAAAAAAAAAAAAAAAAAAAAAAAAAAAAAAAAAAAAAAAAAAAAAAAAAAAAAAAAAAAAAAAAAAAAAAAAAAAAAAAAAAAAAAAAAAAAAAAAAAAAAAAAAAAAAAAAAAAAAAAAAAAAAAAAAAAAAAAAAAAAAAAAAAAAAAAAAAAAAAAAAAAAAAAAAAAAAAAAAAAAAAAAAAAAAAAAAAAAAAAAAAAAAAAAAAAAAAAAAAAAAAAAAAAAAAAAAAAAAAAAAAAAAAAAAAAAAAAAAAAAAAAAAAAAAAAAAAAAAAAAAAAAAAAAAAAAAAAAAAAAAAAAAAAAAAAAAAAAAAAAAAAAAAAAAAAAAAAAAAAAAAAAAAAAAAAAAAAAAAAAAAAAAAAAAAAAAAAAAAAAAAAAAAAAAAAAAAAAAAAAAAAAAAAAAAAAAAAAAAAAAAAAAAAAAAAAAAAAAAAAAAAAAAAAAAAAAAAAAAAAAAAAAAAAAAAAAAAAAAAAAAAAAAAAAAAAAAAAAAAAAAAAAAAAAAAAAAAAAAAAAAAAAAAAAAAAAAAAAAAAAAAAAAAAAAAAAAAAAAAAAAAAAAAAAAAAAAAAAAAAAAAAAAAAAAAAAAAAAAAAAAAAAAAAAAAAAAAAAAAAAAAAAAAAAAAAAAAAAAAAAAAAAAAAAAAAAAAAAAAAAAAAAAAAAAAAAAAAAAAAAAAAAAAAAAAAAAAAAAAAAAAAAAAAAAAAAAAAAAAAAAAAAAAAAAAAAAAAAAAAAAAAAAAAAAAAAAAAAAAAAAAAAAAAAAAAAAAAAAAAAAAAAAAAAAAAAAAAAAAAAAAAAAAAAAAAAAAAAAAAAAAAAAAAAAAAAAAAAAAAAAAAAAAAAAAAAAAAAAAAAAAAAAAAAAAAAAAAAAAAAAAAAAAAAAAAAAAAAAAAAAAAAAAAAAAAAAAAAAAAAAAAAAAAAAAAAAAAAAAAAAAAAAAAAAAAAAAAAAAAAAAAAAAAAAAAAAAAAAAAAAAAAAAAAAAAAAAAAAAAAAAAAAAAAAAAAAAAAAAAAAAAAAAAAAAAAAAAAAAAAAAAAAAAAAAAAAAAAAAAAAAAAAAAAAAAAAAAAAAAAAAAAAAAAAAAAAAAAAAAAAAAAAAAAAAAAAAAAAAAAAAAAAAAAAAAAAAAAAAAAAAAAAAAAAAAAAAAAAAAAAAAAAAAAAAAAAAAAAAAAAAAAAAAAAAAAAAAAAAAAAAAAAAAAAAAAAAAAAAAAAAAAAAAAAAAAAAAAAAAAAAAAAAAAAAAAAAAAAAAAAAAAAAAAAAAAAAAAAAAAAAAAAAAAAAAAAAAAAAAAAAAAAAAAAAAAAAAAAAAAAAAAAAAAAAAAAAAAAAAAAAAAAAAAAAAAAAAAAAAAAAAAAAAAAAAAAAAAAAAAAAAAAAAAAAAAAAAAAAAAAAAAAAAAAAAAAAAAAAAAAAAAAAAAAAAAAAAAAAAAAAAAAAAAAAAAAAAAAAAAAAAAAAAAAAAAAAAAAAAAAAAAAAAAAAAAAAAAAAAAAAAAAAAAAAAAAAAAAAAAAAAAAAAAAAAAAAAAAAAAAAAAAAAAAAAAAAAAAAAAAAAAAAAAAAAAAAAAAAAAAAAAAAAAAAAAAAAAAAAAAAAAAAAAAAAAAAAAAAAAAAAAAAAAAAAAAAAAAAAAAAAAAAAAAAAAAAAAAAAAAAAAAAAAAAAAAAAAAAAAAAAAAAAAAAAAAAAAAAAAAAAAAAAAAAAAAAAAAAAAAAAAAAAAAAAAAAAAAAAAAAAAAAAAAAAAAAAAAAAAAAAAAAAAAAAAAAAAAAAAAAAAAAAAAAAAAAAAAAAAAAAAAAAAAAAAAAAAAAAAAAAAAAAAAAAAAAAAAAAAAAAAAAAAAAAAAAAAAAAAAAAAAAAAAAAAAAAAAAAAAAAAAAAAAAAAAAAAAAAAAAAAAAAAAAAAAAAAAAAAAAAAAAAAAAAAAAAAAAAAAAAAAAAAAAAAAAAAAAAAAAAAAAAAAAAAAAAAAAAAAAAAAAAAAAAAAAAAAAAAAAAAAAAAAAAAAAAAAAAAAAAAAAAAAAAAAAAAAAAAAAAAAAAAAAAAAAAAAAAAAAAAAAAAAAAAAAAAAAAAAAAAAAAAAAAAAAAAAAAAAAAAAAAAAAAAAAAAAAAAAAAAAAAAAAAAAAAAAAAAAAAAAAAAAAAAAAAAAAAAAAAAAAAAAAAAAAAAAAAAAAAAAAAAAAAAAAAAAAAAAAAAAAAAAAAAAAAAAAAAAAAAAAAAAAAAAAAAAAAAAAAAAAAAAAAAAAAAAAAAAAAAAAAAAAAAAAAAAAAAAAAAAAAAAAAAAAAAAAAAAAAAAAAAAAAAAAAAAAAAAAAAAAAAAAAAAAAAAAAAAAAAAAAAAAAAAAAAAAAAAAAAAAAAAAAAAAAAAAAAAAAAAAAAAAAAAAAAAAAAAAAAAAAAAAAAAAAAAAAAAAAAAAAAAAAAAAAAAAAAAAAAAAAAAAAAAAAAAAAAAAAAAAAAAAAAAAAAAAAAAAAAAAAAAAAAAAAAAAAAAAAAAAAAAAAAAAAAAAAAAAAAAAAAAAAAAAAAAAAAAAAAAAAAAAAAAAAAAAAAAAAAAAAAAAAAAAAAAAAAAAAAAAAAAAAAAAAAAAAAAAAAAAAAAAAAAAAAAAAAAAAAAAAAAAAAAAAAAAAAAAAAAAAAAAAAAAAAAAAAAAAAAAAAAAAAAAAAAAAAAAAAAAAAAAAAAAAAAAAAAAAAAAAAAAAAAAAAAAAAAAAAAAAAAAAAAAAAAAAAAAAAAAAAAAAAAAAAAAAAAAAAAAAAAAAAAAAAAAAAAAAAAAAAAAAAAAAAAAAAAAAAAAAAAAAAAAAAAPZYQAZp+phT8oXARMagtBlxrOwzDHv7osME3HTrG9W+Jd9zo7D2Jc/Oj9QGYO1pWr8G4ck5f9whWmpG6KyvtWA6bHg=</c2pa:manifest></metadata><path fill="#F17F21" d="M1.73.62v112.07c0,3.01,1.18,5.9,3.28,8.06l77.99,80.01c.72.74,1.72,1.16,2.76,1.16h31.27c1.04,0,2.04-.42,2.77-1.17l78.13-80.7c2.08-2.15,3.25-5.03,3.25-8.03V.62h-33.28l.62,102.75c.01,1.92-.74,3.76-2.09,5.13l-63.29,64.03c-.86.87-2.25.87-3.11,0l-63.13-63.64c-1.33-1.34-2.08-3.15-2.1-5.04L34.01.62H1.73Z"/><path fill="#F17F21" d="M215.86.62l-.04,29.07c0,1.62,1.31,2.93,2.92,2.93h117.62c2.21,0,4.01,1.79,4.01,4.01v31.89c0,1.07.84,1.95,1.9,2.02h29.17c.77.04,1.43-.57,1.43-1.35V18.77c0-10.02-8.12-18.15-18.15-18.15h-138.87Z"/><path fill="#F17F21" d="M278.06,88.17v25.51c0,1.67,1.35,3.03,3.03,3.03h54.77c2.38,0,4.31,1.93,4.31,4.31v44.51c0,2.38-1.93,4.31-4.31,4.31h-123.99c-3.36,0-10.34.56-10.34-4.31v-27.23l-33.05,34.1v14.11c0,8.59,6.96,15.55,15.55,15.55h171.26c10.02,0,18.15-8.12,18.15-18.15v-95.35c0-1.88-1.52-3.41-3.41-3.41h-88.94c-1.67,0-3.03,1.35-3.03,3.03Z"/><path fill="#F17F21" d="M388.22.62v183.36c0,9.97,8.09,18.06,18.06,18.06h162.48c9.97,0,18.06-8.09,18.06-18.06V.62h-32.59l-.02,163.68c0,2.92-2.37,5.28-5.29,5.27l-121.95-.37c-2.89,0-5.23-2.34-5.25-5.23l-1.22-163.34h-32.28Z"/><path fill="#FFFFFF" d="M167.1,299.83v13.91c0,5.23,2.32,7.46,5.49,7.46,3.45,0,5.71-2.3,5.71-7.46v-13.91h3.05v13.69c0,7.21-3.79,10.16-8.88,10.16-4.79,0-8.41-2.73-8.41-10.03v-13.83h3.05Z"/><path fill="#FFFFFF" d="M197.04,323.3v-23.47h3.33l7.52,11.86c1.72,2.75,3.08,5.22,4.19,7.64l.08-.04c-.28-3.13-.33-6-.33-9.63v-9.84h2.85v23.47h-3.08l-7.46-11.9c-1.62-2.63-3.19-5.31-4.37-7.86l-.1.04c.18,2.97.22,5.8.22,9.68v10.04h-2.85Z"/><path fill="#FFFFFF" d="M233.45,299.83v23.47h-3.05v-23.47h3.05Z"/><path fill="#FFFFFF" d="M254.35,323.3l-7.69-23.47h3.29l3.65,11.57c1.01,3.17,1.88,6.02,2.51,8.76h.08c.66-2.71,1.62-5.67,2.67-8.72l3.97-11.61h3.24l-8.38,23.47h-3.34Z"/><path fill="#FFFFFF" d="M291.19,312.29h-9.1v8.48h10.18v2.53h-13.22v-23.47h12.69v2.52h-9.64v7.43h9.1v2.51Z"/><path fill="#FFFFFF" d="M306.63,300.15c1.54-.31,3.75-.5,5.83-.5,3.22,0,5.34.61,6.8,1.93,1.16,1.03,1.84,2.63,1.84,4.46,0,3.08-1.97,5.13-4.42,5.98v.09c1.79.63,2.87,2.32,3.44,4.75.77,3.28,1.33,5.52,1.8,6.44h-3.14c-.37-.68-.9-2.68-1.54-5.62-.7-3.21-1.97-4.46-4.71-4.55h-2.87v10.17h-3.03v-23.15ZM309.66,310.83h3.1c3.24,0,5.3-1.77,5.3-4.46,0-3.05-2.2-4.37-5.4-4.38-1.47,0-2.49.13-3,.27v8.57Z"/><path fill="#FFFFFF" d="M335.41,319.6c1.36.85,3.33,1.52,5.42,1.52,3.1,0,4.92-1.62,4.92-4,0-2.18-1.27-3.46-4.44-4.64-3.83-1.36-6.21-3.37-6.21-6.66,0-3.65,3.04-6.37,7.61-6.37,2.38,0,4.15.55,5.18,1.13l-.85,2.48c-.75-.44-2.32-1.11-4.43-1.11-3.22,0-4.44,1.91-4.44,3.51,0,2.18,1.43,3.25,4.67,4.51,3.98,1.56,5.99,3.47,5.99,6.91s-2.65,6.77-8.21,6.77c-2.27,0-4.74-.68-6-1.53l.8-2.53Z"/><path fill="#FFFFFF" d="M366.47,299.83v23.47h-3.05v-23.47h3.05Z"/><path fill="#FFFFFF" d="M386.67,302.39h-7.15v-2.56h17.38v2.56h-7.18v20.91h-3.05v-20.91Z"/><path fill="#FFFFFF" d="M416.17,323.3v-9.95l-7.44-13.52h3.47l3.3,6.48c.89,1.78,1.61,3.2,2.33,4.84h.07c.65-1.54,1.45-3.08,2.35-4.86l3.38-6.46h3.43l-7.85,13.47v10h-3.05Z"/><path fill="#FFFFFF" d="M18.42,275.31l-10.3-35.01h6.71l4.22,15.85c1.15,4.24,2.23,8.5,3.02,12.74h.12c.79-4.19,1.91-8.53,3.08-12.72l4.42-15.88h6.57l-10.89,35.01h-6.95Z"/><path fill="#FFFFFF" d="M52.55,240.3v35.01h-6.14v-35.01h6.14Z"/><path fill="#FFFFFF" d="M83.92,259.65h-11.73v10.53h13.16v5.13h-19.3v-35.01h18.58v5.13h-12.43v9.18h11.73v5.04Z"/><path fill="#FFFFFF" d="M103.34,245.58h-8.88v-5.29h23.98v5.29h-8.96v29.72h-6.14v-29.72Z"/><path fill="#FFFFFF" d="M128.89,275.31v-35.01h6.66l8.09,15c1.99,3.66,3.94,7.87,5.39,11.54l.12-.02c-.4-4.6-.58-9.38-.58-15v-11.52h5.61v35.01h-6.18l-8.17-15.25c-1.95-3.65-4.04-7.91-5.54-11.79l-.15.02c.25,4.4.36,9.12.36,15.32v11.7h-5.61Z"/><path fill="#FFFFFF" d="M174.03,265.64l-2.66,9.66h-6.24l10.2-35.01h7.64l10.13,35.01h-6.43l-2.78-9.66h-9.87ZM182.99,260.95l-2.37-8.45c-.59-2.21-1.14-4.84-1.62-7h-.12c-.47,2.18-1,4.88-1.56,6.99l-2.35,8.46h8.04Z"/><path fill="#FFFFFF" d="M231.19,261.25c-.21-4.34-.44-9.58-.39-14.08h-.15c-1.01,4.15-2.32,8.73-3.63,12.83l-4.68,14.88h-4.58l-4.28-14.61c-1.23-4.21-2.4-8.84-3.22-13.1h-.12c-.12,4.39-.34,9.7-.58,14.28l-.73,13.85h-5.62l2.33-35.01h7.65l4.21,14.09c1.2,4.25,2.25,8.26,3.04,12.18h.15c.84-3.86,1.91-7.95,3.17-12.2l4.39-14.07h7.6l2.03,35.01h-5.87l-.68-14.05Z"/><path fill="#FFFFFF" d="M268.21,259.65h-11.73v10.53h13.16v5.13h-19.3v-35.01h18.58v5.13h-12.43v9.18h11.73v5.04Z"/><path fill="#FFFFFF" d="M281.07,268.65c1.83,1.07,4.71,1.98,7.55,1.98,3.88,0,6.04-1.94,6.04-4.8,0-2.7-1.76-4.27-5.72-5.98-5.21-2.18-8.61-5.4-8.61-10.04,0-5.66,4.47-9.97,11.75-9.97,3.33,0,5.89.77,7.44,1.59l-1.38,5.04c-1.17-.65-3.32-1.52-6.19-1.52-3.79,0-5.44,2.15-5.44,4.23,0,2.69,1.84,3.95,6.18,5.89,5.59,2.49,8.17,5.64,8.17,10.3,0,5.82-4.32,10.44-12.52,10.44-3.38,0-6.86-.96-8.53-2l1.27-5.14Z"/><path fill="#FFFFFF" d="M330.54,259.65h-11.73v10.53h13.16v5.13h-19.3v-35.01h18.58v5.13h-12.43v9.18h11.73v5.04Z"/><path fill="#FFFFFF" d="M354.31,259.28v4.3h-12.51v-4.3h12.51Z"/><path fill="#FFFFFF" d="M391.66,273.91c-2.03.75-5.94,1.73-9.92,1.73-5.21,0-9.25-1.34-12.27-4.3-3.03-2.94-4.78-7.66-4.75-13.22.06-11.72,7.72-18.17,17.89-18.17,3.75,0,6.66.75,8.12,1.46l-1.31,5.04c-1.63-.74-3.65-1.29-6.78-1.29-6.57,0-11.5,4.09-11.5,12.75s4.53,12.68,10.7,12.68c1.9,0,3.27-.25,3.94-.57v-9.05h-5.44v-4.88h11.33v17.82Z"/><path fill="#FFFFFF" d="M422.17,259.65h-11.73v10.53h13.16v5.13h-19.3v-35.01h18.58v5.13h-12.43v9.18h11.73v5.04Z"/><path fill="#FFFFFF" d="M435.36,240.79c2.28-.45,5.5-.73,8.79-.73,4.59,0,7.89.78,10.16,2.74,1.93,1.68,2.9,4.08,2.9,7.04,0,4.38-2.73,7.48-6.11,8.78v.13c2.52.94,3.93,3.32,4.75,6.95,1,4.35,1.92,8.28,2.58,9.59h-6.32c-.52-1.01-1.33-4.06-2.19-8.33-.91-4.56-2.46-6.04-5.83-6.1h-2.64v14.43h-6.1v-34.52ZM441.46,256.31h3.08c4.04,0,6.53-2.38,6.53-5.88,0-3.71-2.29-5.65-6.27-5.68-1.63,0-2.75.13-3.34.29v11.27Z"/><path fill="#FFFFFF" d="M496.52,261.25c-.21-4.34-.44-9.58-.39-14.08h-.15c-1.01,4.15-2.32,8.73-3.63,12.83l-4.68,14.88h-4.58l-4.28-14.61c-1.23-4.21-2.4-8.84-3.22-13.1h-.12c-.12,4.39-.34,9.7-.58,14.28l-.73,13.85h-5.62l2.33-35.01h7.65l4.21,14.09c1.2,4.25,2.25,8.26,3.04,12.18h.15c.84-3.86,1.91-7.95,3.17-12.2l4.39-14.07h7.6l2.03,35.01h-5.87l-.68-14.05Z"/><path fill="#FFFFFF" d="M521.79,265.64l-2.66,9.66h-6.24l10.2-35.01h7.64l10.13,35.01h-6.43l-2.78-9.66h-9.87ZM530.75,260.95l-2.37-8.45c-.59-2.21-1.14-4.84-1.62-7h-.12c-.47,2.18-1,4.88-1.56,6.99l-2.35,8.46h8.04Z"/><path fill="#FFFFFF" d="M552.02,275.31v-35.01h6.66l8.09,15c1.99,3.66,3.94,7.87,5.39,11.54l.12-.02c-.4-4.6-.58-9.38-.58-15v-11.52h5.61v35.01h-6.18l-8.17-15.25c-1.95-3.65-4.04-7.91-5.54-11.79l-.15.02c.25,4.4.36,9.12.36,15.32v11.7h-5.61Z"/><path fill="#F26F21" d="M0,0v112.76c0,3.03,1.18,5.94,3.3,8.11l78.47,80.51c.73.75,1.73,1.17,2.77,1.17h31.46c1.05,0,2.05-.43,2.78-1.18l78.61-81.19c2.1-2.17,3.27-5.06,3.27-8.08V0h-33.49l.63,103.38c.01,1.93-.74,3.78-2.1,5.16l-63.68,64.42c-.86.87-2.27.87-3.13,0l-63.52-64.03c-1.34-1.35-2.1-3.17-2.11-5.07L32.48,0H0Z"/><path fill="#F26F21" d="M215.45,0l-.04,29.25c0,1.63,1.32,2.94,2.94,2.94h118.35c2.23,0,4.03,1.81,4.03,4.03v32.09c0,1.08.84,1.97,1.92,2.03h29.35c.78.04,1.44-.58,1.44-1.36V18.26C373.43,8.17,365.25,0,355.17,0h-139.72Z"/><path fill="#F26F21" d="M278.03,88.08v25.67c0,1.68,1.36,3.04,3.04,3.04h55.1c2.39,0,4.33,1.94,4.33,4.33v44.78c0,2.39-1.94,4.33-4.33,4.33h-124.75c-3.38,0-10.4.57-10.4-4.33v-27.39l-33.26,34.31v14.2c0,8.64,7,15.64,15.64,15.64h172.32c10.08,0,18.26-8.17,18.26-18.26v-95.94c0-1.89-1.53-3.43-3.43-3.43h-89.49c-1.68,0-3.04,1.36-3.04,3.04Z"/><path fill="#F26F21" d="M388.87,0v184.49c0,10.04,8.14,18.17,18.17,18.17h163.48c10.04,0,18.17-8.14,18.17-18.17V0h-32.79l-.02,164.68c0,2.94-2.38,5.31-5.32,5.3l-122.7-.38c-2.91,0-5.27-2.36-5.29-5.26L421.35,0h-32.48Z"/></svg>